<svg width="24" height="25" viewBox="0 0 24 25" fill="none" xmlns="http://www.w3.org/2000/svg">
  <mask id="mask0_18_43" style="mask-type:alpha" maskUnits="userSpaceOnUse" x="0" y="0" width="24" height="25">
    <rect y="0.5" width="24" height="24" fill="#B17457"/>
  </mask>
  <g mask="url(#mask0_18_43)">
    <path d="M12 22.5C10.75 22.5 9.57917 22.2625 8.4875 21.7875C7.39583 21.3125 6.44583 20.6708 5.6375 19.8625C4.82917 19.0542 4.1875 18.1042 3.7125 17.0125C3.2375 15.9208 3 14.75 3 13.5H5C5 15.45 5.67917 17.1042 7.0375 18.4625C8.39583 19.8208 10.05 20.5 12 20.5C13.95 20.5 15.6042 19.8208 16.9625 18.4625C18.3208 17.1042 19 15.45 19 13.5C19 11.55 18.3208 9.89583 16.9625 8.5375C15.6042 7.17917 13.95 6.5 12 6.5H11.85L13.4 8.05L12 9.5L8 5.5L12 1.5L13.4 2.95L11.85 4.5H12C13.25 4.5 14.4208 4.7375 15.5125 5.2125C16.6042 5.6875 17.5542 6.32917 18.3625 7.1375C19.1708 7.94583 19.8125 8.89583 20.2875 9.9875C20.7625 11.0792 21 12.25 21 13.5C21 14.75 20.7625 15.9208 20.2875 17.0125C19.8125 18.1042 19.1708 19.0542 18.3625 19.8625C17.5542 20.6708 16.6042 21.3125 15.5125 21.7875C14.4208 22.2625 13.25 22.5 12 22.5Z" fill="#B17457"/>
  </g>
</svg>